<svg width="1208" height="418" viewBox="0 0 1208 418" fill="none" xmlns="http://www.w3.org/2000/svg">
<path d="M589.102 106.031C617.038 106.031 643.308 116.908 663.064 136.671C682.819 156.426 693.703 182.696 693.703 210.633C693.703 238.569 682.826 264.839 663.064 284.595C643.302 304.35 617.038 315.234 589.102 315.234C561.165 315.234 534.895 304.357 515.14 284.595C495.384 264.839 484.501 238.569 484.501 210.633C484.501 182.696 495.378 156.426 515.14 136.671C534.895 116.915 561.165 106.031 589.102 106.031ZM589.102 29.6655C489.156 29.6655 408.135 110.686 408.135 210.633C408.135 310.579 489.156 391.6 589.102 391.6C689.048 391.6 770.069 310.579 770.069 210.633C770.069 110.686 689.048 29.6655 589.102 29.6655Z" fill="#ffffff"/>
<path d="M1128.33 302.438H1036.91V303.733L1128.33 395.159V302.438Z" fill="#ffffff"/>
<path d="M388.851 21.6045H297.424V22.8994L388.851 114.326V21.6045Z" fill="#ffffff"/>
<path d="M21 21.5708V128.622V390.285H98.3486V205.971L282.669 390.285H393.566L98.3486 95.4597L21 21.5708Z" fill="#ffffff"/>
<path d="M1132.47 21L762.306 390.285H873.07L1132.45 130.914L1132.47 21Z" fill="#ffffff"/>
<path d="M1155.01 321.483V306.502H1147.52V302.358H1166.65V306.502H1159.16V321.483H1155.01Z" fill="#ffffff"/>
<path d="M1168.64 321.483V302.358H1172.89L1179.37 310.088L1185.82 302.358H1190.1V321.483H1185.96V308.654L1179.37 316.516L1172.76 308.68V321.483H1168.64Z" fill="#ffffff"/>
</svg>
