<svg width="515" height="165" viewBox="0 0 515 165" fill="none" xmlns="http://www.w3.org/2000/svg">
<path d="M249.826 37.3927C262.111 37.3927 273.663 42.1759 282.351 50.8664C291.038 59.554 295.824 71.1062 295.824 83.3914C295.824 95.6766 291.041 107.229 282.351 115.916C273.66 124.604 262.111 129.39 249.826 129.39C237.54 129.39 225.988 124.607 217.3 115.916C208.613 107.229 203.827 95.6766 203.827 83.3914C203.827 71.1062 208.61 59.554 217.3 50.8664C225.988 42.1789 237.54 37.3927 249.826 37.3927ZM249.826 3.81055C205.874 3.81055 170.245 39.4397 170.245 83.3914C170.245 127.343 205.874 162.972 249.826 162.972C293.777 162.972 329.406 127.343 329.406 83.3914C329.406 39.4397 293.777 3.81055 249.826 3.81055Z" fill="#F1F2F2"/>
<path d="M486.954 123.762H446.751V124.331L486.954 164.536V123.762Z" fill="#F1F2F2"/>
<path d="M161.765 0.263672H121.56V0.833108L161.765 41.0382V0.263672Z" fill="#F1F2F2"/>
<path d="M0 0.25V47.3263V162.393H34.0143V81.3406L115.07 162.393H163.837L34.0143 32.7429L0 0.25Z" fill="#F1F2F2"/>
<path d="M488.772 0L325.992 162.394H374.7L488.763 48.3349L488.772 0Z" fill="#F1F2F2"/>
<path d="M498.687 132.139V125.551H495.393V123.729H503.803V125.551H500.509V132.139H498.687Z" fill="#F1F2F2"/>
<path d="M504.678 132.139V123.729H506.547L509.397 127.128L512.236 123.729H514.116V132.139H512.294V126.497L509.397 129.954L506.489 126.509V132.139H504.678Z" fill="#F1F2F2"/>
</svg>
